<?xml version="1.0" encoding="UTF-8"?><svg id="Capa_1" xmlns="http://www.w3.org/2000/svg" viewBox="0 0 660 160"><path d="m60.12,115.55c-3.64,17.08-13.99,25.63-31.07,25.67-14.03,0-21.05-5.81-21.05-17.43,0-2.49.32-5.24.95-8.24l15.12-71.15c3.64-17.08,13.97-25.62,31.01-25.62,14.07,0,21.11,5.81,21.11,17.43,0,2.45-.32,5.18-.95,8.18l-3.56,16.84h-19.74l3.56-16.84c.2-.87.3-1.66.3-2.37,0-2.85-1.56-4.29-4.68-4.33h-.12c-3.83,0-6.23,2.23-7.17,6.7l-15.12,71.15c-.2.87-.3,1.66-.3,2.37,0,2.89,1.56,4.33,4.68,4.33,3.91,0,6.34-2.23,7.29-6.7l3.56-16.84h19.74l-3.56,16.84Z"/><path d="m123.74,115.55c-3.64,17.08-13.99,25.63-31.07,25.67-14.03,0-21.05-5.81-21.05-17.43,0-2.49.32-5.24.95-8.24l15.12-71.15c3.64-17.08,13.97-25.62,31.01-25.62,14.07,0,21.11,5.81,21.11,17.43,0,2.45-.32,5.18-.95,8.18l-15.12,71.15Zm-4.62-71.15c.2-.87.3-1.66.3-2.37,0-2.85-1.56-4.29-4.68-4.33h-.12c-3.83,0-6.23,2.23-7.17,6.7l-15.12,71.15c-.2.87-.3,1.66-.3,2.37,0,2.89,1.56,4.33,4.68,4.33,3.91,0,6.34-2.23,7.29-6.7l15.12-71.15Z"/><path d="m158.13,20.62h27.33c12.93.04,19.39,5.71,19.39,17.02,0,2.61-.34,5.49-1.01,8.66l-14.29,67.42c-3.64,17.04-13.74,25.58-30.3,25.62h-26.33l25.2-118.71Zm15.71,18.92l-17.14,80.88h5.87c3.87,0,6.28-2.23,7.23-6.7l14.29-67.42c.2-.87.3-1.66.3-2.37,0-2.92-1.56-4.39-4.68-4.39h-5.87Z"/><path d="m223.54,20.62h46.49l-4.03,18.92h-26.74l-6.52,30.95h23.01l-4.03,18.97h-23.01l-6.58,30.95h26.74l-4.03,18.92h-46.49l25.2-118.71Z"/><path d="m282.47,20.62h25.91c12.93.04,19.39,5.71,19.39,17.02,0,2.61-.34,5.49-1.01,8.66l-3.68,17.49c-2.29,10.75-8.08,17.71-17.37,20.87l7.41,54.67h-21.52l-2.67-51.05h-1.07l-10.85,51.05h-19.74l25.2-118.71Zm15.71,18.92l-6.52,30.95h2.37c2.13,0,3.54-.12,4.21-.36,2.69-.99,4.39-3.1,5.1-6.34l3.68-17.49c.2-.87.3-1.66.3-2.37,0-2.92-1.56-4.39-4.68-4.39h-4.45Z"/><path d="m603.92,37.69h-.12c-3.83,0-6.23,2.23-7.17,6.7l-15.12,71.15c-.2.87-.3,1.66-.3,2.37,0,2.89,1.56,4.33,4.68,4.33,3.91,0,6.34-2.23,7.29-6.7l15.12-71.15c.2-.87.3-1.66.3-2.37,0-2.85-1.56-4.29-4.68-4.33Z"/><path d="m349.92,5.89l-27.49,148h303.51l27.49-148h-303.51Zm47.06,83.57h-23.01l-10.61,49.87h-19.74l25.2-118.71h46.49l-4.03,18.92h-26.74l-6.52,30.95h23.01l-4.03,18.97Zm28.34,51.76c-14.03,0-21.05-5.81-21.05-17.43,0-2.49.32-5.24.95-8.24l15.12-71.15c3.64-17.08,13.97-25.62,31.01-25.62,14.07,0,21.11,5.81,21.11,17.43,0,2.45-.32,5.18-.95,8.18l-15.12,71.15c-3.64,17.08-13.99,25.63-31.07,25.67Zm86.75-1.9h-46.49l25.2-118.71h19.75l-21.17,99.79h26.74l-4.03,18.92Zm10.38,0l25.2-118.71h19.75l-25.2,118.71h-19.75Zm90.48-23.78c-3.64,17.08-13.99,25.63-31.07,25.67-14.03,0-21.05-5.81-21.05-17.43,0-2.49.32-5.24.95-8.24l15.12-71.15c3.64-17.08,13.97-25.62,31.01-25.62,14.07,0,21.11,5.81,21.11,17.43,0,2.45-.32,5.18-.95,8.18l-15.12,71.15Z"/><path d="m447.38,37.69h-.12c-3.83,0-6.23,2.23-7.17,6.7l-15.12,71.15c-.2.87-.3,1.66-.3,2.37,0,2.89,1.56,4.33,4.68,4.33,3.91,0,6.34-2.23,7.29-6.7l15.12-71.15c.2-.87.3-1.66.3-2.37,0-2.85-1.56-4.29-4.68-4.33Z"/></svg>